<mxfile host="app.diagrams.net" modified="2021-11-18T13:47:47.292Z" agent="5.0 (Windows NT 10.0; Win64; x64) AppleWebKit/537.36 (KHTML, like Gecko) Chrome/95.0.4638.69 Safari/537.36" etag="I46V0_nOjHqBG5QnSnqP" version="15.8.2" type="github">
  <diagram id="RDyM5Sn1KwQpERf3-6v_" name="Page-1">
    <mxGraphModel dx="1343" dy="635" grid="1" gridSize="10" guides="1" tooltips="1" connect="1" arrows="1" fold="1" page="1" pageScale="1" pageWidth="827" pageHeight="1169" math="0" shadow="0">
      <root>
        <mxCell id="0" />
        <mxCell id="1" parent="0" />
        <mxCell id="D086AMLhP0JBdoeUekMZ-2" value="Start the Program&amp;nbsp;" style="strokeWidth=2;html=1;shape=mxgraph.flowchart.start_1;whiteSpace=wrap;" parent="1" vertex="1">
          <mxGeometry x="157.5" y="83" width="170" height="70" as="geometry" />
        </mxCell>
        <mxCell id="D086AMLhP0JBdoeUekMZ-12" style="edgeStyle=orthogonalEdgeStyle;rounded=0;orthogonalLoop=1;jettySize=auto;html=1;exitX=0.5;exitY=1;exitDx=0;exitDy=0;entryX=0.5;entryY=0;entryDx=0;entryDy=0;entryPerimeter=0;startArrow=none;" parent="1" source="QhxnlMzqvn4maWAdjBox-20" target="D086AMLhP0JBdoeUekMZ-6" edge="1">
          <mxGeometry relative="1" as="geometry">
            <Array as="points">
              <mxPoint x="243" y="470" />
              <mxPoint x="315" y="470" />
            </Array>
          </mxGeometry>
        </mxCell>
        <mxCell id="D086AMLhP0JBdoeUekMZ-4" value="Single Wave Passing" style="strokeWidth=2;html=1;shape=mxgraph.flowchart.loop_limit;whiteSpace=wrap;" parent="1" vertex="1">
          <mxGeometry x="263.25" y="479" width="100" height="40" as="geometry" />
        </mxCell>
        <mxCell id="D086AMLhP0JBdoeUekMZ-6" value="30s&lt;br&gt;Countdown Timer&amp;nbsp;" style="strokeWidth=2;html=1;shape=mxgraph.flowchart.start_1;whiteSpace=wrap;" parent="1" vertex="1">
          <mxGeometry x="267.25" y="537.5" width="96" height="65" as="geometry" />
        </mxCell>
        <mxCell id="D086AMLhP0JBdoeUekMZ-10" value="End of Program" style="strokeWidth=2;html=1;shape=mxgraph.flowchart.terminator;whiteSpace=wrap;" parent="1" vertex="1">
          <mxGeometry x="540" y="400" width="100" height="40" as="geometry" />
        </mxCell>
        <mxCell id="ww8WBpyP77Uh2FEGIEoH-34" style="edgeStyle=orthogonalEdgeStyle;rounded=0;orthogonalLoop=1;jettySize=auto;html=1;" edge="1" parent="1" source="QhxnlMzqvn4maWAdjBox-18">
          <mxGeometry relative="1" as="geometry">
            <mxPoint x="242.5" y="300" as="targetPoint" />
          </mxGeometry>
        </mxCell>
        <mxCell id="QhxnlMzqvn4maWAdjBox-18" value="PCIe Initialisation" style="rounded=1;whiteSpace=wrap;html=1;absoluteArcSize=1;arcSize=31;strokeWidth=2;" parent="1" vertex="1">
          <mxGeometry x="187.5" y="300" width="110" height="30" as="geometry" />
        </mxCell>
        <mxCell id="QhxnlMzqvn4maWAdjBox-20" value="DIO Initialisation" style="rounded=1;whiteSpace=wrap;html=1;absoluteArcSize=1;arcSize=14;strokeWidth=2;" parent="1" vertex="1">
          <mxGeometry x="187.5" y="340" width="110" height="30" as="geometry" />
        </mxCell>
        <mxCell id="QhxnlMzqvn4maWAdjBox-21" value="" style="edgeStyle=orthogonalEdgeStyle;rounded=0;orthogonalLoop=1;jettySize=auto;html=1;exitX=0.5;exitY=1;exitDx=0;exitDy=0;entryX=0.5;entryY=0;entryDx=0;entryDy=0;entryPerimeter=0;startArrow=none;endArrow=none;" parent="1" source="QhxnlMzqvn4maWAdjBox-18" target="QhxnlMzqvn4maWAdjBox-20" edge="1">
          <mxGeometry relative="1" as="geometry">
            <mxPoint x="255" y="509.0000000000001" as="sourcePoint" />
            <mxPoint x="280" y="574.0000000000001" as="targetPoint" />
          </mxGeometry>
        </mxCell>
        <mxCell id="ww8WBpyP77Uh2FEGIEoH-32" style="edgeStyle=orthogonalEdgeStyle;rounded=0;orthogonalLoop=1;jettySize=auto;html=1;exitX=0.25;exitY=1;exitDx=0;exitDy=0;entryX=0.5;entryY=0;entryDx=0;entryDy=0;entryPerimeter=0;" edge="1" parent="1" source="QhxnlMzqvn4maWAdjBox-24" target="ww8WBpyP77Uh2FEGIEoH-12">
          <mxGeometry relative="1" as="geometry" />
        </mxCell>
        <mxCell id="QhxnlMzqvn4maWAdjBox-24" value="Timer Initialisation" style="rounded=1;whiteSpace=wrap;html=1;absoluteArcSize=1;arcSize=14;strokeWidth=2;" parent="1" vertex="1">
          <mxGeometry x="187.5" y="421" width="110" height="30" as="geometry" />
        </mxCell>
        <mxCell id="7VH7p3_VGqFjAGke6KR7-12" style="edgeStyle=orthogonalEdgeStyle;rounded=0;orthogonalLoop=1;jettySize=auto;html=1;entryX=1;entryY=0.5;entryDx=0;entryDy=0;entryPerimeter=0;" parent="1" source="7VH7p3_VGqFjAGke6KR7-8" target="D086AMLhP0JBdoeUekMZ-4" edge="1">
          <mxGeometry relative="1" as="geometry">
            <mxPoint x="312.5" y="424" as="targetPoint" />
          </mxGeometry>
        </mxCell>
        <mxCell id="7VH7p3_VGqFjAGke6KR7-8" value="if any of wave parameters changes" style="ellipse;whiteSpace=wrap;html=1;" parent="1" vertex="1">
          <mxGeometry x="439.5" y="414" width="70" height="65" as="geometry" />
        </mxCell>
        <mxCell id="7VH7p3_VGqFjAGke6KR7-20" value="" style="edgeStyle=orthogonalEdgeStyle;rounded=0;orthogonalLoop=1;jettySize=auto;html=1;exitX=0.5;exitY=0;exitDx=0;exitDy=0;" parent="1" source="ww8WBpyP77Uh2FEGIEoH-19" edge="1">
          <mxGeometry relative="1" as="geometry">
            <mxPoint x="600.02" y="712.9827586206898" as="sourcePoint" />
            <mxPoint x="638" y="415.5" as="targetPoint" />
            <Array as="points">
              <mxPoint x="680" y="416" />
            </Array>
          </mxGeometry>
        </mxCell>
        <mxCell id="ww8WBpyP77Uh2FEGIEoH-33" style="edgeStyle=orthogonalEdgeStyle;rounded=0;orthogonalLoop=1;jettySize=auto;html=1;entryX=0.5;entryY=1;entryDx=0;entryDy=0;" edge="1" parent="1" source="7VH7p3_VGqFjAGke6KR7-21" target="ww8WBpyP77Uh2FEGIEoH-18">
          <mxGeometry relative="1" as="geometry">
            <mxPoint x="663" y="590" as="targetPoint" />
            <Array as="points">
              <mxPoint x="182" y="660" />
              <mxPoint x="679" y="660" />
            </Array>
          </mxGeometry>
        </mxCell>
        <mxCell id="7VH7p3_VGqFjAGke6KR7-21" value="Batch file Wave Initialisation" style="rounded=1;whiteSpace=wrap;html=1;absoluteArcSize=1;arcSize=14;strokeWidth=2;" parent="1" vertex="1">
          <mxGeometry x="127" y="555" width="110" height="30" as="geometry" />
        </mxCell>
        <mxCell id="ww8WBpyP77Uh2FEGIEoH-1" value="ncurses Initialisation" style="rounded=1;whiteSpace=wrap;html=1;absoluteArcSize=1;arcSize=14;strokeWidth=2;" vertex="1" parent="1">
          <mxGeometry x="183.75" y="380" width="117.5" height="30" as="geometry" />
        </mxCell>
        <mxCell id="QhxnlMzqvn4maWAdjBox-3" value="User input&amp;nbsp; command line argument&amp;nbsp; &amp;nbsp;&amp;nbsp;" style="rounded=1;whiteSpace=wrap;html=1;absoluteArcSize=1;arcSize=14;strokeWidth=2;" parent="1" vertex="1">
          <mxGeometry x="187.5" y="181" width="110" height="50" as="geometry" />
        </mxCell>
        <mxCell id="ww8WBpyP77Uh2FEGIEoH-4" value="" style="edgeStyle=orthogonalEdgeStyle;rounded=0;orthogonalLoop=1;jettySize=auto;html=1;endArrow=none;" edge="1" parent="1" source="D086AMLhP0JBdoeUekMZ-2" target="QhxnlMzqvn4maWAdjBox-3">
          <mxGeometry relative="1" as="geometry">
            <mxPoint x="242.5" y="153" as="sourcePoint" />
            <mxPoint x="302.5" y="231" as="targetPoint" />
          </mxGeometry>
        </mxCell>
        <mxCell id="ww8WBpyP77Uh2FEGIEoH-6" value="Wave Initialisation" style="rounded=1;whiteSpace=wrap;html=1;absoluteArcSize=1;arcSize=14;strokeWidth=2;" vertex="1" parent="1">
          <mxGeometry x="187.5" y="250" width="110" height="30" as="geometry" />
        </mxCell>
        <mxCell id="ww8WBpyP77Uh2FEGIEoH-7" value="" style="edgeStyle=orthogonalEdgeStyle;rounded=0;orthogonalLoop=1;jettySize=auto;html=1;startArrow=none;endArrow=none;" edge="1" parent="1" source="QhxnlMzqvn4maWAdjBox-3" target="ww8WBpyP77Uh2FEGIEoH-6">
          <mxGeometry relative="1" as="geometry">
            <mxPoint x="242.51428571428573" y="213" as="sourcePoint" />
            <mxPoint x="302.51428571428573" y="260.0040816326531" as="targetPoint" />
          </mxGeometry>
        </mxCell>
        <mxCell id="ww8WBpyP77Uh2FEGIEoH-20" value="" style="edgeStyle=orthogonalEdgeStyle;rounded=0;orthogonalLoop=1;jettySize=auto;html=1;" edge="1" parent="1" source="ww8WBpyP77Uh2FEGIEoH-12" target="7VH7p3_VGqFjAGke6KR7-21">
          <mxGeometry relative="1" as="geometry" />
        </mxCell>
        <mxCell id="ww8WBpyP77Uh2FEGIEoH-12" value="Batch File Wave Passing" style="strokeWidth=2;html=1;shape=mxgraph.flowchart.loop_limit;whiteSpace=wrap;" vertex="1" parent="1">
          <mxGeometry x="132" y="491" width="100" height="40" as="geometry" />
        </mxCell>
        <mxCell id="ww8WBpyP77Uh2FEGIEoH-14" value="Switch Input Thread" style="rounded=0;whiteSpace=wrap;html=1;" vertex="1" parent="1">
          <mxGeometry x="414.5" y="584.5" width="120" height="20" as="geometry" />
        </mxCell>
        <mxCell id="ww8WBpyP77Uh2FEGIEoH-15" value="Potentiometer Input Thread" style="rounded=0;whiteSpace=wrap;html=1;" vertex="1" parent="1">
          <mxGeometry x="389.5" y="560" width="170" height="20" as="geometry" />
        </mxCell>
        <mxCell id="ww8WBpyP77Uh2FEGIEoH-16" value="Arrow Key Input Thread" style="rounded=0;whiteSpace=wrap;html=1;" vertex="1" parent="1">
          <mxGeometry x="389.5" y="537.5" width="170" height="16" as="geometry" />
        </mxCell>
        <mxCell id="ww8WBpyP77Uh2FEGIEoH-17" value="Update Timer Thread" style="rounded=0;whiteSpace=wrap;html=1;" vertex="1" parent="1">
          <mxGeometry x="382" y="615" width="170" height="20" as="geometry" />
        </mxCell>
        <mxCell id="ww8WBpyP77Uh2FEGIEoH-31" value="" style="edgeStyle=orthogonalEdgeStyle;rounded=0;orthogonalLoop=1;jettySize=auto;html=1;" edge="1" parent="1" source="ww8WBpyP77Uh2FEGIEoH-18">
          <mxGeometry relative="1" as="geometry">
            <mxPoint x="679" y="505.5" as="targetPoint" />
          </mxGeometry>
        </mxCell>
        <mxCell id="ww8WBpyP77Uh2FEGIEoH-18" value="Wave Generation Thread" style="rounded=0;whiteSpace=wrap;html=1;" vertex="1" parent="1">
          <mxGeometry x="594" y="560" width="170" height="20" as="geometry" />
        </mxCell>
        <mxCell id="ww8WBpyP77Uh2FEGIEoH-19" value="Play Corresponding Sound" style="rounded=1;whiteSpace=wrap;html=1;absoluteArcSize=1;arcSize=14;strokeWidth=2;" vertex="1" parent="1">
          <mxGeometry x="630" y="455.5" width="100" height="50" as="geometry" />
        </mxCell>
        <mxCell id="ww8WBpyP77Uh2FEGIEoH-21" value="Update Display Thread" style="rounded=0;whiteSpace=wrap;html=1;" vertex="1" parent="1">
          <mxGeometry x="594" y="525.5" width="170" height="20" as="geometry" />
        </mxCell>
        <mxCell id="ww8WBpyP77Uh2FEGIEoH-29" value="" style="shape=curlyBracket;whiteSpace=wrap;html=1;rounded=1;" vertex="1" parent="1">
          <mxGeometry x="362" y="530" width="20" height="80" as="geometry" />
        </mxCell>
        <mxCell id="ww8WBpyP77Uh2FEGIEoH-30" value="" style="shape=flexArrow;endArrow=classic;html=1;rounded=0;" edge="1" parent="1">
          <mxGeometry width="50" height="50" relative="1" as="geometry">
            <mxPoint x="475" y="530" as="sourcePoint" />
            <mxPoint x="475" y="490" as="targetPoint" />
          </mxGeometry>
        </mxCell>
        <mxCell id="ww8WBpyP77Uh2FEGIEoH-37" style="edgeStyle=orthogonalEdgeStyle;rounded=0;orthogonalLoop=1;jettySize=auto;html=1;exitX=0.1;exitY=0.5;exitDx=0;exitDy=0;exitPerimeter=0;entryX=0;entryY=0.5;entryDx=0;entryDy=0;" edge="1" parent="1" source="ww8WBpyP77Uh2FEGIEoH-35" target="ww8WBpyP77Uh2FEGIEoH-18">
          <mxGeometry relative="1" as="geometry" />
        </mxCell>
        <mxCell id="ww8WBpyP77Uh2FEGIEoH-35" value="" style="shape=curlyBracket;whiteSpace=wrap;html=1;rounded=1;direction=west;" vertex="1" parent="1">
          <mxGeometry x="559" y="530" width="20" height="80" as="geometry" />
        </mxCell>
      </root>
    </mxGraphModel>
  </diagram>
</mxfile>
